<?xml version="1.0" standalone="no"?>
<!DOCTYPE svg PUBLIC "-//W3C//DTD SVG 20010904//EN"
 "http://www.w3.org/TR/2001/REC-SVG-20010904/DTD/svg10.dtd">
<svg version="1.0" xmlns="http://www.w3.org/2000/svg"
 width="512.000000pt" height="398.000000pt" viewBox="0 0 512.000000 398.000000"
 preserveAspectRatio="xMidYMid meet">

<g transform="translate(0.000000,398.000000) scale(0.100000,-0.100000)"
fill="#000000" stroke="none">
<path d="M253 3966 c-102 -32 -176 -97 -222 -196 l-26 -55 0 -1725 0 -1725 26
-56 c37 -79 90 -133 167 -171 l67 -33 2295 0 2295 0 67 33 c77 38 130 92 167
171 l26 56 0 1725 0 1725 -33 67 c-38 77 -92 130 -171 167 l-56 26 -2280 2
c-1866 1 -2288 -1 -2322 -11z m3104 -305 c126 -58 127 -241 1 -307 -15 -8 -48
-14 -73 -14 -123 0 -203 113 -161 224 38 100 136 141 233 97z m574 3 c62 -26
99 -82 99 -154 0 -98 -69 -170 -162 -170 -65 0 -114 24 -144 70 -34 51 -40
100 -20 154 37 98 129 138 227 100z m586 -3 c126 -58 127 -241 1 -307 -15 -8
-48 -14 -73 -14 -123 0 -203 113 -161 224 38 100 136 141 233 97z m393 -1955
l0 -1433 -26 -27 -27 -26 -2289 0 -2290 0 -29 29 -29 29 0 1431 0 1431 2345 0
2345 0 0 -1434z"/>
<path d="M530 1970 l0 -910 2015 0 2015 0 0 910 0 910 -2015 0 -2015 0 0 -910z
m2540 475 c116 -31 189 -105 227 -230 26 -85 26 -374 1 -456 -38 -123 -125
-204 -247 -230 -90 -20 -274 -15 -352 10 -117 37 -190 126 -219 266 -7 33 -12
116 -12 185 0 304 91 438 318 469 81 11 214 5 284 -14z m986 3 c40 -6 77 -14
84 -18 10 -6 9 -28 -6 -104 -9 -52 -21 -101 -24 -107 -5 -7 -38 -8 -111 -1
-113 10 -230 2 -254 -18 -13 -10 -15 -49 -15 -238 l0 -225 79 5 c44 3 87 10
95 18 9 7 16 28 16 46 0 32 -2 34 -35 34 l-35 0 0 115 0 115 173 -2 172 -3 0
-245 0 -244 -79 -23 c-99 -28 -257 -46 -338 -38 -203 20 -306 102 -349 275
-20 82 -18 328 4 410 21 75 66 151 112 186 97 74 285 97 511 62z m-2541 -19
c89 -25 137 -127 116 -244 -14 -72 -37 -111 -84 -139 l-38 -23 58 -29 c85 -43
108 -88 108 -215 0 -89 -2 -99 -30 -144 -20 -32 -45 -56 -74 -72 -43 -23 -49
-23 -348 -23 l-303 0 0 450 0 450 278 0 c172 0 292 -4 317 -11z m595 -324 l0
-335 145 0 145 0 0 -115 0 -115 -295 0 -295 0 0 450 0 450 150 0 150 0 0 -335z"/>
<path d="M2831 2210 c-18 -4 -37 -14 -42 -22 -5 -7 -9 -107 -9 -222 l0 -209
95 5 c142 8 135 -4 135 250 l0 208 -72 -1 c-40 -1 -88 -5 -107 -9z"/>
<path d="M1210 2175 l0 -65 59 0 c51 0 62 3 75 22 18 26 20 61 6 89 -9 16 -22
19 -75 19 l-65 0 0 -65z"/>
<path d="M1217 1893 c-4 -3 -7 -37 -7 -75 l0 -68 68 0 c85 0 104 12 106 69 1
60 -26 81 -103 81 -32 0 -61 -3 -64 -7z"/>
<path d="M574 730 c-32 -13 -72 -67 -80 -106 -9 -49 9 -104 46 -139 l31 -30
807 -3 c786 -2 808 -2 839 17 48 30 67 66 67 126 0 60 -19 96 -67 125 -31 19
-56 20 -827 19 -437 0 -804 -4 -816 -9z"/>
<path d="M2723 720 c-48 -29 -67 -65 -67 -125 0 -60 19 -96 67 -125 31 -19 57
-20 887 -20 809 0 857 1 889 18 94 50 94 204 0 254 -32 17 -80 18 -889 18
-830 0 -856 -1 -887 -20z"/>
</g>
</svg>
