<svg xmlns="http://www.w3.org/2000/svg" width="70.733" height="67.644" viewBox="0 0 70.733 67.644">
  <path id="star-2" d="M38.782,3.17,46.76,19.335a3.808,3.808,0,0,0,2.868,2.083l17.84,2.592a3.809,3.809,0,0,1,2.111,6.5L56.67,43.09a3.809,3.809,0,0,0-1.095,3.371l3.047,17.767A3.81,3.81,0,0,1,53.1,68.245L37.14,59.857a3.813,3.813,0,0,0-3.545,0L17.639,68.245a3.809,3.809,0,0,1-5.527-4.016l3.047-17.767a3.809,3.809,0,0,0-1.095-3.371L1.155,30.507a3.808,3.808,0,0,1,2.111-6.5l17.84-2.592a3.808,3.808,0,0,0,2.868-2.083L31.952,3.17A3.808,3.808,0,0,1,38.782,3.17Z" transform="translate(0 -1.047)" fill="#191919"/>
</svg>
